<svg width="175" height="180" viewBox="0 0 175 180" fill="none" xmlns="http://www.w3.org/2000/svg">
<path d="M139.159 3.10775C97.3707 1.2683 23.412 22.2715 61.8864 121C150.075 103.743 150.147 35.2146 139.159 3.10775Z" fill="#AFE3AF"/>
<path d="M139.159 3.10775L141.525 2.29829C141.192 1.32524 140.297 0.655395 139.269 0.610168L139.159 3.10775ZM61.8864 121L59.557 121.908L60.3157 123.855L62.3665 123.453L61.8864 121ZM68.6221 62.2263C68.7471 60.8513 67.7337 59.6353 66.3587 59.5103C64.9836 59.3853 63.7676 60.3986 63.6426 61.7737L68.6221 62.2263ZM141.307 6.34608C142.327 5.41503 142.398 3.83374 141.467 2.81418C140.536 1.79462 138.955 1.72287 137.935 2.65392L141.307 6.34608ZM88.6072 35.3536C88.8025 33.9867 87.8527 32.7204 86.4859 32.5251C85.119 32.3299 83.8527 33.2796 83.6575 34.6464L88.6072 35.3536ZM87.5228 57.9004C86.1421 57.9004 85.0228 59.0197 85.0228 60.4004C85.0228 61.7811 86.1421 62.9004 87.5228 62.9004L87.5228 57.9004ZM114.68 56.2699C115.934 55.6913 116.481 54.206 115.902 52.9524C115.324 51.6987 113.838 51.1515 112.585 51.7301L114.68 56.2699ZM77.9329 75L75.773 73.7412L75.773 73.7412L77.9329 75ZM139.269 0.610168C118.066 -0.323141 88.3374 4.49449 68.7331 22.4996C58.8658 31.5621 51.6335 43.9112 49.3757 60.329C47.1247 76.6972 49.8359 96.9625 59.557 121.908L64.2157 120.092C54.6997 95.6733 52.2278 76.29 54.3291 61.0102C56.4235 45.78 63.0787 34.4816 72.1153 26.1822C90.3189 9.46344 118.464 4.69919 139.049 5.60533L139.269 0.610168ZM136.794 3.91721C142.147 19.5591 144.78 44.0669 135.405 66.6643C126.103 89.0827 104.804 110.054 61.4063 118.547L62.3665 123.453C107.157 114.688 129.988 92.7672 140.023 68.5804C149.984 44.5729 147.159 18.7632 141.525 2.29829L136.794 3.91721ZM64.3363 121.498C66.1879 112.389 67.8009 103.123 72.3325 91.9389L67.6985 90.0611C62.9596 101.756 61.2646 111.509 59.4365 120.502L64.3363 121.498ZM72.4114 90.2863C70.0482 82.3533 67.667 72.7323 68.6221 62.2263L63.6426 61.7737C62.5977 73.2677 65.2164 83.6467 67.6195 91.7137L72.4114 90.2863ZM89.159 62.403C100.048 47.3261 116.353 29.1341 141.307 6.34608L137.935 2.65392C112.818 25.5914 96.2557 44.0378 85.1057 59.4754L89.159 62.403ZM89.5979 60.5255C88.1224 51.7325 87.6563 42.0096 88.6072 35.3536L83.6575 34.6464C82.6083 41.9904 83.1423 52.2676 84.6668 61.3529L89.5979 60.5255ZM87.5228 62.9004C96.1145 62.9004 107.982 59.3613 114.68 56.2699L112.585 51.7301C106.283 54.6388 95.1501 57.9004 87.5228 57.9004L87.5228 62.9004ZM72.3325 91.9389C74.2865 87.1165 76.7881 81.9293 80.0929 76.2588L75.773 73.7412C72.3509 79.6131 69.7437 85.0138 67.6985 90.0611L72.3325 91.9389ZM80.0929 76.2588C82.6092 71.9413 85.5931 67.34 89.159 62.403L85.1057 59.4754C81.4515 64.5348 78.3773 69.2726 75.773 73.7412L80.0929 76.2588Z" fill="#649C61"/>
<path d="M48.1529 132.037C89.7938 97.1088 126.23 167.963 123.627 169.958C123.584 169.991 123.521 170.013 123.439 170.022C91.9876 180.632 33.192 187.81 48.1529 132.037Z" fill="#AFE3AF"/>
<path d="M48.1529 132.037C89.7938 97.1088 126.23 167.963 123.627 169.958M48.1529 132.037C33.1621 187.921 92.2229 180.603 123.627 169.958M48.1529 132.037C52.2275 134.269 57.0004 136.864 62.1323 139.63M123.627 169.958C122.357 170.932 103.59 161.558 83.6323 151.078M62.1323 139.63L80.1323 136M62.1323 139.63L63.8823 149.565L65.6323 159.5M62.1323 139.63C68.9315 143.295 76.361 147.26 83.6323 151.078M83.6323 151.078L89.1323 165.5M83.6323 151.078L98.1323 149" stroke="#6AAC66" stroke-width="5" stroke-linecap="round"/>
<path d="M172.132 80.6994C135.517 64.7112 64.3932 49.5224 72.8198 116.673C112.946 168.292 155.747 114.198 172.132 80.6994Z" fill="#D4ECD4"/>
<path d="M172.132 80.6994L174.378 81.7979C174.678 81.1854 174.714 80.4772 174.479 79.8373C174.244 79.1973 173.758 78.6811 173.133 78.4083L172.132 80.6994ZM72.8198 116.673L70.3392 116.984L70.4247 117.665L70.846 118.207L72.8198 116.673ZM173.133 78.4083C154.688 70.3544 127.254 62.3481 105.283 65.0275C94.2351 66.3748 84.2641 70.4659 77.6615 78.9378C71.058 87.4109 68.1834 99.8047 70.3392 116.984L75.3003 116.362C73.2428 99.9658 76.0988 89.0768 81.6053 82.0114C87.1127 74.9447 95.6311 71.2416 105.888 69.9908C126.526 67.474 152.961 75.0563 171.132 82.9905L173.133 78.4083ZM169.887 79.601C161.774 96.1876 147.231 117.599 130.041 128.494C121.5 133.907 112.498 136.606 103.375 135.074C94.261 133.544 84.5682 127.713 74.7935 115.139L70.846 118.207C81.1345 131.442 91.8392 138.207 102.548 140.005C113.248 141.802 123.494 138.563 132.717 132.717C151.055 121.095 166.106 98.7103 174.378 81.7979L169.887 79.601Z" fill="#569053"/>
<path d="M100.649 86.9769C101.465 85.8629 101.223 84.2986 100.109 83.4829C98.9953 82.6672 97.4309 82.9091 96.6152 84.0231L100.649 86.9769ZM87.9481 108.442C90.6556 101.786 97.2904 91.5644 100.649 86.9769L96.6152 84.0231C93.1916 88.6988 86.2612 99.3193 83.3166 106.558L87.9481 108.442Z" fill="#569053"/>
<path d="M125.06 84.5922C125.939 83.5277 125.789 81.9519 124.725 81.0726C123.66 80.1932 122.084 80.3433 121.205 81.4078L125.06 84.5922ZM115.404 99.0428C117.438 94.6121 122.483 87.7109 125.06 84.5922L121.205 81.4078C118.564 84.6049 113.175 91.9142 110.86 96.9572L115.404 99.0428Z" fill="#569053"/>
<path d="M50.1323 131C28.7989 138.833 -9.66774 133.7 7.13226 50.5C7.80652 50.6571 8.47318 50.8167 9.13232 50.9788C77.2945 67.7425 64.9886 111.192 50.1323 131Z" fill="#DBFFDB"/>
<path d="M50.1323 131L50.994 133.347L51.6884 133.092L52.1323 132.5L50.1323 131ZM7.13226 50.5L7.69946 48.0652C7.0412 47.9118 6.3489 48.0316 5.78036 48.3971C5.21182 48.7625 4.8155 49.3427 4.68172 50.0052L7.13226 50.5ZM9.13232 50.9788L9.72938 48.5511L9.13232 50.9788ZM49.2705 128.653C39.0395 132.41 25.3354 132.826 16.1435 123.164C6.85448 113.4 1.21647 92.4281 9.5828 50.9948L4.68172 50.0052C-3.75195 91.7719 1.44338 114.966 12.521 126.611C23.6958 138.357 39.8917 137.423 50.994 133.347L49.2705 128.653ZM52.1323 132.5C59.788 122.292 67.0203 105.723 63.1993 89.2817C59.3155 72.5694 44.2982 57.0529 9.72938 48.5511L8.53527 53.4065C42.1287 61.6684 55.0395 76.2583 58.3291 90.4135C61.6817 104.84 55.3329 119.899 48.1323 129.5L52.1323 132.5ZM9.72938 48.5511C9.06018 48.3866 8.38356 48.2246 7.69946 48.0652L6.56506 52.9348C7.22948 53.0896 7.88619 53.2468 8.53527 53.4065L9.72938 48.5511ZM52.629 130.873C52.3564 125.503 49.8687 115.265 43.5708 101.406C37.2452 87.4855 27.0137 69.7735 11.1012 49.4381L7.16346 52.5194C22.8509 72.5672 32.8694 89.942 39.0188 103.474C45.1959 117.068 47.4082 126.65 47.6355 131.127L52.629 130.873Z" fill="#7CAC79"/>
<path d="M26.7337 109.573C25.3935 109.241 24.0379 110.058 23.7057 111.399C23.3736 112.739 24.1908 114.094 25.531 114.427L26.7337 109.573ZM46.4733 113.523C40.2848 112.671 30.9088 110.608 26.7337 109.573L25.531 114.427C29.7769 115.479 39.3483 117.59 45.7913 118.477L46.4733 113.523Z" fill="#7CAC79"/>
<path d="M47.6762 99.5336C47.9338 98.1771 49.2422 97.2863 50.5987 97.5439C51.9552 97.8015 52.846 99.1099 52.5884 100.466L47.6762 99.5336ZM43.7667 116.191C44.9634 112.69 46.8294 103.993 47.6762 99.5336L52.5884 100.466C51.751 104.877 49.8275 113.919 48.498 117.809L43.7667 116.191Z" fill="#7CAC79"/>
<path d="M18.6664 85.5577C17.3175 85.2628 15.985 86.1171 15.69 87.4659C15.3951 88.8148 16.2494 90.1473 17.5983 90.4423L18.6664 85.5577ZM35.4338 88.5182C30.1786 87.8798 22.2132 86.3333 18.6664 85.5577L17.5983 90.4423C21.2093 91.2319 29.3492 92.8158 34.8308 93.4818L35.4338 88.5182Z" fill="#7CAC79"/>
<path d="M35.6689 76.574C35.9042 75.2135 37.1978 74.3013 38.5583 74.5366C39.9188 74.7718 40.831 76.0655 40.5958 77.426L35.6689 76.574ZM32.7453 90.257C33.6364 87.3943 35.0333 80.2495 35.6689 76.574L40.5958 77.426C39.9682 81.0548 38.523 88.5188 37.5194 91.743L32.7453 90.257Z" fill="#7CAC79"/>
<path d="M104.818 112.432C106.098 112.948 106.717 114.405 106.201 115.685C105.684 116.966 104.227 117.585 102.947 117.068L104.818 112.432ZM87.3515 103.727C89.111 105.005 92.2578 106.699 95.6784 108.355C99.0525 109.989 102.523 111.506 104.818 112.432L102.947 117.068C100.546 116.1 96.9731 114.537 93.4993 112.855C90.0721 111.196 86.5667 109.337 84.4132 107.773L87.3515 103.727Z" fill="#569053"/>
<path d="M128.629 101.457C129.895 102.007 130.475 103.48 129.925 104.746C129.375 106.013 127.902 106.593 126.636 106.043L128.629 101.457ZM116.173 94.7808C117.388 95.7316 119.609 97.0229 122.076 98.3096C124.498 99.5723 126.988 100.744 128.629 101.457L126.636 106.043C124.885 105.282 122.289 104.059 119.764 102.743C117.286 101.451 114.703 99.9789 113.092 98.7192L116.173 94.7808Z" fill="#569053"/>
<path d="M29.1323 176.5C28.6323 152.833 51.2323 102.6 145.632 91" stroke="#569053" stroke-width="5" stroke-linecap="round"/>
</svg>
